<?xml version="1.0" encoding="UTF-8"?>
<!DOCTYPE svg PUBLIC "-//W3C//DTD SVG 1.1//EN" "http://www.w3.org/Graphics/SVG/1.1/DTD/svg11.dtd">
<!-- Creator: CorelDRAW X6 -->
<svg xmlns="http://www.w3.org/2000/svg" xml:space="preserve" width="279.4mm" height="215.9mm" version="1.1" style="shape-rendering:geometricPrecision; text-rendering:geometricPrecision; image-rendering:optimizeQuality; fill-rule:evenodd; clip-rule:evenodd"
viewBox="0 0 27940 21590"
 xmlns:xlink="http://www.w3.org/1999/xlink">
 <defs>
  <style type="text/css">
   <![CDATA[
    .str0 {stroke:#373435;stroke-width:20}
    .fil14 {fill:none}
    .fil10 {fill:#353535}
    .fil11 {fill:#3B3B3B}
    .fil8 {fill:#414141}
    .fil9 {fill:#454545}
    .fil5 {fill:#4F4F4F}
    .fil6 {fill:#555555}
    .fil4 {fill:#5E5E5E}
    .fil12 {fill:#6D6D6D}
    .fil3 {fill:#727272}
    .fil1 {fill:#797979}
    .fil2 {fill:#7E7E7E}
    .fil7 {fill:#8A8A8A}
    .fil13 {fill:#A5A5A5}
    .fil0 {fill:white}
   ]]>
  </style>
 </defs>
 <g id="Capa_x0020_1">
  <metadata id="CorelCorpID_0Corel-Layer"/>
  <polygon class="fil0" points="36453,10547 36380,10164 25141,10175 25236,10508 "/>
  <path class="fil0" d="M13119 6921c-102,-407 -105,-4368 12,-4700l5587 13c78,295 79,4318 8,4686l-5607 1zm6377 -5173c-707,-275 -5361,-102 -6431,-70 -799,24 -746,10 -756,898l19 4831 7201 -22c112,-673 111,-5058 -32,-5637z"/>
  <g id="_198726952">
   <path class="fil0" d="M11019 15792c90,-244 32,-65 199,-206l-169 414c-1,-1 -147,112 -30,-209zm-5492 -137l-35 379c-111,-161 -128,31 -83,-260 50,-326 89,-95 119,-119zm6909 389c43,-249 111,-417 200,-594 359,-47 777,-102 1009,85l-911 30c-175,360 -39,226 -297,479zm-2839 12c-18,-319 88,-417 213,-619 1275,-81 859,14 1004,135 -1223,-137 -731,-63 -1217,484zm-1503 -58c63,-602 445,-706 982,-616 477,79 181,49 315,173 -1547,-86 -694,245 -1297,443zm-1400 36c69,-389 100,-582 486,-650 830,-147 813,178 817,181 -254,-25 -603,-100 -839,-5 -212,86 -99,196 -464,474zm-1168 -378c140,-464 668,-383 1060,-213l-121 53c-214,36 70,-2 -162,11l-777 150zm12441 320c-275,-611 100,-648 650,-611 -310,205 -273,13 -637,223l-13 388zm-447 -645l120 155 -178 -12 -499 92 -47 414 -77 -543 682 -107zm-1628 562c-306,-621 190,-560 675,-539l-636 158 -39 381zm-8591 -1077c-41,257 -28,272 -257,460 19,-65 65,-242 91,-294 85,-167 96,-122 166,-166zm-1396 2c-40,328 -37,304 -252,450 11,-38 77,-258 88,-280 189,-374 5,-67 164,-170zm7093 -227c450,36 652,-65 920,182l-941 26c-100,491 -65,350 -298,536l98 -628c35,-18 216,-115 220,-117zm-1633 741c-14,-385 46,-400 242,-624 349,-41 680,-97 912,87l-892 24 -262 513zm-1409 -9c5,-350 90,-411 248,-616l744 -6c193,45 89,28 192,106 -1122,-44 -734,-136 -1184,516zm-1464 -47c191,-961 1116,-590 1248,-477 -697,-3 -754,-144 -1042,237l-205 240zm-1083 -667l937 -4c-292,272 133,165 -555,188 -168,6 -339,12 -489,22 11,-40 15,-87 26,-121 7,-21 30,-27 36,-69 4,-26 30,-17 46,-17zm-1504 209c138,-259 -81,-115 223,-209 40,-12 577,-102 808,169 -318,41 -713,18 -1032,40zm12533 -240c-161,122 -27,76 -306,129 -11,2 -289,14 -357,23 -1,26 -10,238 -11,242 -50,249 27,26 -115,188l28 -559 761 -23zm-1707 557c-185,-223 -143,-163 -70,-529l757 -28c-159,118 -36,76 -311,130 -6,1 -270,15 -361,27l-15 400zm-1056 -469c325,-88 416,-131 653,60l-536 26 -150 381c-6,-14 -25,52 -66,74l99 -542zm-6790 -417l-72 255c-24,-46 -58,-4 -34,-132 45,-241 75,-96 106,-123zm8746 -191l-61 420c-215,-256 -143,-202 -108,-575l169 155zm-393 -179c-318,301 -112,106 -600,183 -74,122 -91,-50 -35,472 -238,-184 -182,346 -229,-639l864 -15zm-1865 138c16,-7 58,-107 430,-101 309,5 184,-2 348,107l-673 94c-34,565 77,196 -93,422l-11 -523zm-2374 572c-88,-235 -1,-463 72,-653 879,-59 757,-69 1037,136l-921 0 -188 516zm-1146 -474c-67,34 -114,121 -127,99 -12,-20 -41,40 -63,59 94,-551 903,-356 1103,-194 -351,-37 -635,-103 -913,37zm-1417 -200c222,-10 375,-38 617,-26 343,17 304,40 459,158 -1643,109 -438,24 -1343,486l267 -617zm-1550 333c29,-407 -21,-348 494,-360 524,-13 478,28 648,167 -983,46 -343,-178 -1142,194zm-1476 360c-146,-269 59,-482 171,-657 146,-9 453,-39 588,-29 573,43 245,32 394,154 -829,-85 -950,-186 -1153,532zm-1500 -42c67,-423 113,-595 433,-663 13,-3 491,-27 500,-26 619,76 136,-39 386,195l-944 11c-120,269 -62,270 -376,483zm-2016 2172l1473 7 279 -2 5589 -6 466 1 8293 -22 -1060 -3297 -13395 -8 -1645 3328z"/>
   <g>
    <path class="fil1" d="M5912 14425c314,-213 256,-215 376,-483l944 -11c-250,-234 233,-118 -386,-195 -9,-1 -488,23 -500,26 -321,68 -367,240 -433,663z"/>
    <path class="fil1" d="M10437 13774l-267 617c905,-461 -300,-377 1343,-486 -154,-117 -115,-140 -459,-158 -242,-12 -395,16 -617,26z"/>
    <path class="fil2" d="M13000 14448c-5,2 -186,99 -220,117l-98 628c232,-186 197,-45 298,-536l941 -26c-267,-247 -470,-146 -920,-182z"/>
    <path class="fil3" d="M8096 15856c603,-198 -250,-529 1297,-443 -135,-124 161,-94 -315,-173 -537,-89 -918,14 -982,616z"/>
    <path class="fil3" d="M6697 15892c366,-278 252,-388 464,-474 236,-95 585,-20 839,5 -3,-3 13,-328 -817,-181 -386,68 -417,262 -486,650z"/>
    <path class="fil2" d="M16377 13753c47,985 -9,455 229,639 -56,-522 -39,-350 35,-472 488,-76 282,118 600,-183l-864 15z"/>
    <path class="fil4" d="M13000 14448l188 -516 921 0c-280,-205 -158,-195 -1037,-136 -74,190 -160,418 -72,653z"/>
    <path class="fil2" d="M8887 14107c800,-372 159,-148 1142,-194 -170,-139 -124,-179 -648,-166 -515,13 -466,-46 -494,360z"/>
    <path class="fil1" d="M5529 15514l777 -150c232,-12 -52,25 162,-11l121 -53c-392,-169 -920,-250 -1060,213z"/>
    <path class="fil5" d="M9599 15914c486,-546 -6,-621 1217,-484 -146,-121 271,-216 -1004,-135 -124,202 -231,300 -213,619z"/>
    <path class="fil6" d="M12437 15903c258,-253 122,-119 297,-479l911 -30c-232,-187 -650,-132 -1009,-85 -89,177 -157,345 -200,594z"/>
    <path class="fil7" d="M7304 14674c151,-10 321,-17 489,-22 689,-23 263,83 555,-188l-937 4c-16,0 -42,-9 -46,17 -6,42 -29,48 -36,69 -11,33 -15,81 -26,121z"/>
    <path class="fil7" d="M5908 14676c318,-21 713,1 1032,-40 -231,-271 -768,-182 -808,-169 -304,94 -85,-50 -223,209z"/>
    <path class="fil8" d="M7412 14467c203,-718 324,-617 1153,-532 -148,-122 179,-111 -394,-154 -135,-10 -442,19 -588,29 -112,174 -317,388 -171,657z"/>
    <path class="fil9" d="M11368 15189l262 -513 892 -24c-232,-184 -562,-128 -912,-87 -196,224 -256,239 -242,624z"/>
    <path class="fil5" d="M8494 15133l205 -240c288,-381 345,-240 1042,-237 -132,-113 -1057,-484 -1248,477z"/>
    <path class="fil6" d="M15375 13876l11 523c170,-226 59,143 93,-422l673 -94c-164,-109 -39,-102 -348,-107 -371,-6 -414,94 -430,101z"/>
    <path class="fil10" d="M9959 15180c450,-653 62,-560 1184,-516 -103,-77 1,-61 -192,-106l-744 6c-158,205 -243,266 -248,616z"/>
    <path class="fil5" d="M16734 14993l15 -400c91,-13 355,-26 361,-27 275,-53 153,-11 311,-130l-757 28c-73,367 -116,306 70,529z"/>
    <path class="fil5" d="M17652 15018c142,-162 66,61 115,-188 1,-3 10,-216 11,-242 68,-9 346,-21 357,-23 279,-52 145,-7 306,-129l-761 23 -28 559z"/>
    <path class="fil9" d="M11664 14132c22,-19 51,-79 63,-59 13,22 61,-65 127,-99 278,-140 562,-74 913,-37 -201,-161 -1009,-356 -1103,194z"/>
    <polygon class="fil4" points="17465,15332 17523,15189 16842,15296 16919,15838 16966,15424 "/>
    <path class="fil5" d="M15579 15066c41,-22 60,-89 66,-74l150 -381 536 -26c-238,-191 -329,-148 -653,-60l-99 542z"/>
    <path class="fil4" d="M17970 15834l13 -388c364,-210 327,-18 637,-223 -549,-37 -925,1 -650,611z"/>
    <path class="fil11" d="M15895 15751l39 -381 636 -158c-486,-22 -981,-82 -675,539z"/>
    <path class="fil12" d="M17464 13762c-35,373 -107,319 108,575l61 -420 -169 -155z"/>
    <path class="fil9" d="M5908 14676c-159,103 25,-204 -164,170 -11,22 -77,242 -88,280 216,-146 212,-121 252,-450z"/>
    <path class="fil8" d="M7304 14674c-70,44 -81,-1 -166,167 -26,52 -72,229 -91,294 229,-188 216,-203 257,-460z"/>
    <path class="fil4" d="M11051 15860l169 -414c-167,141 -109,-38 -199,206 -118,320 29,207 30,209z"/>
    <path class="fil9" d="M5529 15514c-30,25 -69,-206 -119,119 -44,291 -28,99 83,260l35 -379z"/>
    <path class="fil6" d="M8887 14107c-31,27 -62,-118 -106,123 -24,129 10,86 34,132l72 -255z"/>
    <polygon class="fil13" points="17523,15189 17465,15332 17643,15344 "/>
   </g>
   <polygon class="fil0" points="9553,9454 11026,9461 11305,9459 16895,9453 17361,9453 25653,9431 24593,6134 11198,6126 "/>
   <path class="fil11" d="M3994 16808l16168 -16 106 552 -16138 -56 -137 -480zm1661 -3469l13395 8 1060 3297 -8293 22 -466 -1 -5589 6 -279 2 -1473 -7 1645 -3328zm5988 -1829l1936 2 -5 1699 -1926 -8 -5 -1693zm-3369 -51c97,13 357,10 470,11l2776 40 2 1700 -5851 0c-340,204 -917,1618 -1132,2058 -828,1691 -739,1130 -553,2150l16438 98c-61,-663 -244,-1145 -437,-1742 -295,-915 -610,-1100 588,-1100 749,0 955,109 1622,258l-268 -169c-546,-248 -1705,-215 -2286,-57l-456 -1495 -5492 -6 37 -1702 3308 -40c179,-26 121,-24 257,-66l-9445 -75 423 138z"/>
   <polygon class="fil0" points="25811,10130 25705,9579 9537,9595 9673,10074 "/>
   <g>
    <polygon class="fil0" points="8980,9183 16824,9183 16824,2688 8982,2688 "/>
    <path class="fil12" d="M17965 1781c206,832 208,7141 47,8109l-10359 32 -27 -6950c14,-1278 -61,-1257 1087,-1292 1540,-47 8235,-295 9251,100zm-10376 -176c-328,1164 -235,7841 -26,9238l403 -117c-126,-71 -81,-6 -232,-98l-55 -595 10376 3 -322 874c664,-135 540,-737 547,-2233 8,-1717 60,-4717 -40,-6342 -49,-805 -59,-756 -508,-828 -1655,-263 -8506,-193 -10143,98z"/>
    <path class="fil12" d="M9015 2684l7842 0 0 6495 -7844 0 2 -6495zm-129 6632l8067 -2c102,-530 101,-6318 -11,-6742l-8038 -18c-169,478 -164,6176 -18,6762z"/>
   </g>
   <polygon class="fil0" points="17191,5991 19117,5998 19122,4300 17186,4297 "/>
   <g>
    <path class="fil8" d="M23146 21387c-17,16 -43,18 -49,48 -7,30 -38,38 -47,49 -251,297 -383,479 -1018,476 -764,-4 -853,-356 -1112,-568 189,883 2040,957 2227,-5z"/>
    <g>
     <path class="fil0" d="M21176 18984l274 63c10,-21 46,-2 109,3l72 -753 -480 117 26 570z"/>
     <path class="fil8" d="M22581 16663c38,-49 62,-45 98,-198l-38 -710c-162,-667 -310,-569 -390,-627 346,803 301,567 330,1535z"/>
     <path class="fil9" d="M21831 17685l570 -663c-224,95 19,-79 -238,144 -22,19 -117,126 -134,147 -152,185 -126,130 -197,373z"/>
     <path class="fil8" d="M21901 14840c92,107 60,85 185,190 192,162 -308,-145 163,88 -122,-206 56,-150 -348,-279z"/>
     <path class="fil10" d="M22401 17021c93,-63 38,36 136,-135 118,-207 43,-74 44,-224l-180 358z"/>
    </g>
    <path class="fil5" d="M22274 18369l481 63c-35,482 16,535 -349,677l-132 -740zm-956 645l-26 -570 480 -117 -72 753c-63,-5 -98,-24 -109,-3l-274 -63zm0 0c239,477 490,121 555,-203 112,-565 -149,-428 272,-491 6,514 -53,876 458,933 133,-34 372,-572 375,-588 7,-40 36,-43 56,-63 436,1209 449,1573 111,3052 95,-91 147,41 257,-477 114,-539 131,-1327 30,-1854 -161,-841 -503,-1070 -1399,-1117l-140 -530c-1,13 -11,299 -13,309 -34,217 -21,109 -88,230 -730,98 -1089,479 -1137,1260 -37,593 -149,1754 349,2188 -198,-708 -605,-2511 198,-3032l117 384z"/>
    <path class="fil0" d="M21319 19014l274 63c10,-21 46,-2 109,3l72 -753 -480 117 26 570z"/>
    <path class="fil0" d="M22406 19110c365,-142 314,-195 349,-677l-481 -63 132 740z"/>
   </g>
   <g>
    <line class="fil14 str0" x1="18154" y1="4297" x2="18154" y2= "5998" />
   </g>
  </g>
 </g>
</svg>
